<svg xmlns="http://www.w3.org/2000/svg" xmlns:xlink="http://www.w3.org/1999/xlink" width="144" zoomAndPan="magnify" viewBox="0 0 108 107.999999" height="144" preserveAspectRatio="xMidYMid meet" version="1.0"><defs><g/></defs><g fill="rgb(100%, 100%, 100%)" fill-opacity="0.4"><g transform="translate(15.596095, 90.097649)"><g><path d="M 8.46875 0 C 11.140625 0 13.625 -1.566406 15.375 -3.5 C 15.652344 -3.957031 15.929688 -4.328125 16.113281 -4.789062 C 16.203125 -4.972656 16.113281 -5.246094 15.835938 -5.523438 C 15.742188 -5.617188 15.558594 -5.617188 15.46875 -5.617188 C 15.191406 -5.617188 14.914062 -5.433594 14.730469 -5.15625 C 13.71875 -3.683594 10.402344 -0.921875 8.65625 -0.921875 C 8.195312 -0.921875 7.824219 -1.289062 7.734375 -1.933594 C 7.640625 -2.761719 7.640625 -3.683594 7.824219 -4.695312 C 8.101562 -6.261719 8.378906 -7.824219 8.746094 -9.390625 C 10.128906 -15.285156 10.957031 -21.082031 11.230469 -27.066406 C 11.324219 -28.082031 11.601562 -28.910156 11.875 -29.644531 C 13.257812 -32.960938 13.902344 -36.460938 14.179688 -40.140625 C 14.453125 -43.457031 14.179688 -46.863281 13.808594 -50.269531 C 13.71875 -51.097656 13.71875 -51.925781 13.625 -52.753906 C 13.535156 -53.582031 13.535156 -54.414062 13.535156 -55.242188 C 13.441406 -57.175781 13.625 -59.109375 14.453125 -60.949219 C 15.835938 -63.433594 17.769531 -64.816406 20.4375 -65 C 21.082031 -65 21.359375 -64.722656 21.269531 -64.078125 L 21.269531 -63.894531 C 21.359375 -63.527344 21.636719 -63.34375 21.914062 -63.433594 C 22.1875 -63.433594 22.371094 -63.621094 22.371094 -63.988281 C 22.464844 -64.816406 22.1875 -65.367188 21.359375 -65.738281 C 20.898438 -66.011719 20.347656 -66.105469 19.703125 -66.105469 C 19.242188 -66.105469 18.875 -66.011719 18.230469 -65.921875 C 15.191406 -65 13.257812 -62.976562 12.519531 -59.753906 C 12.0625 -57.636719 12.0625 -55.886719 12.152344 -53.769531 L 12.707031 -45.757812 C 12.890625 -41.890625 12.519531 -38.117188 11.601562 -34.339844 C 11.324219 -33.328125 11.230469 -32.40625 10.496094 -31.578125 C 10.402344 -31.671875 10.21875 -31.671875 10.128906 -31.761719 C 9.945312 -31.855469 9.757812 -31.855469 9.667969 -31.949219 C 9.390625 -32.222656 9.023438 -32.316406 8.65625 -32.316406 C 6.8125 -32.316406 5.246094 -29.371094 4.695312 -27.710938 C 4.328125 -25.59375 5.246094 -25.320312 6.628906 -24.949219 L 6.8125 -24.949219 C 6.996094 -24.949219 7.179688 -24.949219 7.367188 -25.042969 C 7.457031 -25.042969 7.640625 -25.042969 7.734375 -25.042969 C 8.011719 -25.132812 8.195312 -25.226562 8.378906 -25.320312 C 8.5625 -25.410156 8.839844 -25.503906 9.113281 -25.503906 L 9.390625 -25.503906 C 9.667969 -24.765625 9.484375 -24.03125 9.390625 -23.203125 C 9.023438 -20.253906 8.5625 -17.214844 7.917969 -14.269531 L 6.261719 -6.261719 C 5.984375 -4.972656 5.890625 -3.683594 5.984375 -2.394531 C 6.167969 -0.828125 6.996094 -0.09375 8.46875 0 Z M 6.8125 -26.421875 C 6.628906 -26.421875 6.535156 -26.515625 6.535156 -26.609375 C 6.261719 -27.066406 6.261719 -27.527344 6.535156 -27.898438 C 6.8125 -28.171875 6.996094 -28.542969 7.179688 -28.910156 C 7.550781 -29.554688 8.011719 -30.105469 8.5625 -30.566406 C 8.839844 -30.660156 9.023438 -30.75 9.113281 -30.660156 C 9.207031 -30.660156 9.390625 -30.476562 9.484375 -30.199219 C 9.574219 -30.199219 9.574219 -30.105469 9.574219 -30.015625 L 9.574219 -29.921875 C 9.667969 -28.910156 9.207031 -28.542969 8.746094 -27.898438 C 7.917969 -26.882812 7.273438 -26.421875 6.8125 -26.421875 Z M 6.8125 -26.421875 "/></g></g></g><g fill="rgb(100%, 100%, 100%)" fill-opacity="0.4"><g transform="translate(42.568151, 90.097649)"><g><path d="M 13.902344 -4.050781 C 17.125 -4.050781 18.320312 -5.707031 19.703125 -8.378906 C 22.558594 -14.640625 23.570312 -20.898438 24.398438 -27.621094 L 24.949219 -32.777344 C 25.226562 -34.15625 25.503906 -34.25 26.609375 -34.339844 C 29.832031 -34.800781 33.144531 -35.261719 36.460938 -35.628906 L 40.324219 -36.183594 C 40.695312 -36.273438 40.878906 -36.550781 40.878906 -37.011719 C 40.785156 -37.289062 40.601562 -37.5625 40.140625 -37.65625 C 39.679688 -37.65625 39.3125 -37.65625 39.035156 -37.5625 L 30.75 -36.460938 C 29.1875 -36.183594 27.710938 -36.089844 26.238281 -36 L 26.054688 -36 C 25.59375 -36 25.410156 -36.273438 25.503906 -36.734375 C 26.421875 -43.734375 27.898438 -50.636719 29.921875 -57.449219 C 30.289062 -58.648438 30.75 -59.382812 32.132812 -59.84375 L 45.480469 -64.632812 C 46.863281 -65.09375 48.152344 -65.550781 49.53125 -66.011719 C 50.820312 -66.472656 52.109375 -66.933594 53.492188 -67.394531 C 54.320312 -67.671875 55.242188 -68.039062 56.253906 -68.683594 C 57.636719 -69.511719 57.542969 -71.351562 56.070312 -72.179688 C 54.320312 -73.195312 51.191406 -73.65625 49.257812 -73.65625 C 45.296875 -73.65625 41.523438 -72.367188 37.839844 -70.984375 C 34.800781 -69.789062 31.488281 -66.195312 30.476562 -62.976562 C 29.832031 -60.855469 28.542969 -60.027344 26.699219 -59.292969 C 18.597656 -55.976562 7.457031 -51.191406 0.644531 -45.574219 C 0.277344 -45.296875 -0.183594 -45.207031 0.09375 -44.5625 C 0.277344 -44.285156 0.550781 -44.191406 0.828125 -44.191406 C 1.105469 -44.191406 1.289062 -44.285156 1.472656 -44.375 L 2.855469 -45.296875 C 3.128906 -45.574219 3.40625 -45.757812 3.683594 -46.035156 C 3.957031 -46.308594 4.234375 -46.496094 4.511719 -46.679688 C 11.230469 -51.097656 18.691406 -54.414062 26.148438 -57.449219 C 26.792969 -57.726562 27.34375 -58.003906 27.988281 -58.003906 L 28.171875 -58.003906 C 28.449219 -57.542969 28.542969 -57.175781 28.355469 -56.898438 C 28.171875 -56.53125 27.988281 -56.160156 27.898438 -55.792969 C 26.421875 -50.636719 25.132812 -45.480469 24.398438 -40.234375 C 24.304688 -39.128906 24.214844 -38.117188 23.9375 -37.011719 C 23.660156 -35.539062 23.84375 -35.628906 22.464844 -35.355469 C 21.175781 -35.171875 7.273438 -32.777344 7.273438 -30.199219 C 7.273438 -29.921875 7.457031 -29.644531 7.824219 -29.554688 L 8.46875 -29.554688 C 9.023438 -29.554688 9.484375 -29.738281 9.757812 -30.105469 C 11.230469 -31.761719 20.253906 -33.511719 22.558594 -33.789062 L 22.742188 -33.789062 C 23.292969 -33.789062 23.476562 -33.511719 23.386719 -32.960938 L 23.386719 -32.683594 C 22.558594 -24.859375 21.820312 -16.847656 18.414062 -9.574219 C 17.953125 -8.5625 17.402344 -7.640625 16.664062 -6.628906 C 15.46875 -5.246094 14.546875 -5.0625 12.796875 -5.0625 C 11.230469 -5.15625 10.585938 -5.984375 10.679688 -7.457031 C 10.679688 -8.378906 11.046875 -9.300781 11.691406 -10.128906 C 11.785156 -10.21875 11.96875 -10.402344 12.0625 -10.585938 C 12.152344 -10.773438 12.246094 -10.957031 12.335938 -11.140625 C 12.429688 -11.324219 12.335938 -11.601562 12.0625 -11.875 C 11.96875 -11.96875 11.875 -12.0625 11.785156 -12.0625 C 11.691406 -12.0625 11.507812 -11.96875 11.417969 -11.875 C 10.3125 -10.863281 9.484375 -9.851562 9.207031 -8.285156 C 9.023438 -6.535156 9.667969 -5.339844 11.230469 -4.601562 C 12.246094 -4.234375 12.796875 -4.050781 13.902344 -4.050781 Z M 32.039062 -61.5 C 31.949219 -61.5 31.761719 -61.59375 31.671875 -61.6875 C 31.578125 -61.871094 31.578125 -62.144531 31.761719 -62.421875 C 33.144531 -65.644531 35.171875 -68.039062 38.484375 -69.417969 C 42.074219 -70.800781 45.757812 -71.996094 49.71875 -71.996094 C 51.648438 -71.996094 53.492188 -71.628906 55.425781 -70.984375 C 55.609375 -70.894531 55.703125 -70.707031 55.703125 -70.617188 C 55.703125 -70.433594 55.609375 -70.25 55.515625 -70.15625 C 55.242188 -69.878906 54.871094 -69.695312 54.597656 -69.605469 C 54.226562 -69.511719 53.859375 -69.328125 53.582031 -69.234375 L 40.417969 -64.539062 C 39.035156 -64.078125 37.746094 -63.621094 36.460938 -63.160156 C 35.171875 -62.699219 33.882812 -62.144531 32.5 -61.6875 C 32.222656 -61.59375 32.132812 -61.5 32.039062 -61.5 Z M 32.039062 -61.5 "/></g></g></g><g fill="rgb(0%, 0%, 0%)" fill-opacity="1"><g transform="translate(20.968692, 88.035302)"><g><path d="M 8.46875 0 C 11.140625 0 13.625 -1.566406 15.375 -3.5 C 15.652344 -3.957031 15.929688 -4.328125 16.113281 -4.789062 C 16.203125 -4.972656 16.113281 -5.246094 15.835938 -5.523438 C 15.742188 -5.617188 15.558594 -5.617188 15.46875 -5.617188 C 15.191406 -5.617188 14.914062 -5.433594 14.730469 -5.15625 C 13.71875 -3.683594 10.402344 -0.921875 8.65625 -0.921875 C 8.195312 -0.921875 7.824219 -1.289062 7.734375 -1.933594 C 7.640625 -2.761719 7.640625 -3.683594 7.824219 -4.695312 C 8.101562 -6.261719 8.378906 -7.824219 8.746094 -9.390625 C 10.128906 -15.285156 10.957031 -21.082031 11.230469 -27.066406 C 11.324219 -28.082031 11.601562 -28.910156 11.875 -29.644531 C 13.257812 -32.960938 13.902344 -36.460938 14.179688 -40.140625 C 14.453125 -43.457031 14.179688 -46.863281 13.808594 -50.269531 C 13.71875 -51.097656 13.71875 -51.925781 13.625 -52.753906 C 13.535156 -53.582031 13.535156 -54.414062 13.535156 -55.242188 C 13.441406 -57.175781 13.625 -59.109375 14.453125 -60.949219 C 15.835938 -63.433594 17.769531 -64.816406 20.4375 -65 C 21.082031 -65 21.359375 -64.722656 21.269531 -64.078125 L 21.269531 -63.894531 C 21.359375 -63.527344 21.636719 -63.34375 21.914062 -63.433594 C 22.1875 -63.433594 22.371094 -63.621094 22.371094 -63.988281 C 22.464844 -64.816406 22.1875 -65.367188 21.359375 -65.738281 C 20.898438 -66.011719 20.347656 -66.105469 19.703125 -66.105469 C 19.242188 -66.105469 18.875 -66.011719 18.230469 -65.921875 C 15.191406 -65 13.257812 -62.976562 12.519531 -59.753906 C 12.0625 -57.636719 12.0625 -55.886719 12.152344 -53.769531 L 12.707031 -45.757812 C 12.890625 -41.890625 12.519531 -38.117188 11.601562 -34.339844 C 11.324219 -33.328125 11.230469 -32.40625 10.496094 -31.578125 C 10.402344 -31.671875 10.21875 -31.671875 10.128906 -31.761719 C 9.945312 -31.855469 9.757812 -31.855469 9.667969 -31.949219 C 9.390625 -32.222656 9.023438 -32.316406 8.65625 -32.316406 C 6.8125 -32.316406 5.246094 -29.371094 4.695312 -27.710938 C 4.328125 -25.59375 5.246094 -25.320312 6.628906 -24.949219 L 6.8125 -24.949219 C 6.996094 -24.949219 7.179688 -24.949219 7.367188 -25.042969 C 7.457031 -25.042969 7.640625 -25.042969 7.734375 -25.042969 C 8.011719 -25.132812 8.195312 -25.226562 8.378906 -25.320312 C 8.5625 -25.410156 8.839844 -25.503906 9.113281 -25.503906 L 9.390625 -25.503906 C 9.667969 -24.765625 9.484375 -24.03125 9.390625 -23.203125 C 9.023438 -20.253906 8.5625 -17.214844 7.917969 -14.269531 L 6.261719 -6.261719 C 5.984375 -4.972656 5.890625 -3.683594 5.984375 -2.394531 C 6.167969 -0.828125 6.996094 -0.09375 8.46875 0 Z M 6.8125 -26.421875 C 6.628906 -26.421875 6.535156 -26.515625 6.535156 -26.609375 C 6.261719 -27.066406 6.261719 -27.527344 6.535156 -27.898438 C 6.8125 -28.171875 6.996094 -28.542969 7.179688 -28.910156 C 7.550781 -29.554688 8.011719 -30.105469 8.5625 -30.566406 C 8.839844 -30.660156 9.023438 -30.75 9.113281 -30.660156 C 9.207031 -30.660156 9.390625 -30.476562 9.484375 -30.199219 C 9.574219 -30.199219 9.574219 -30.105469 9.574219 -30.015625 L 9.574219 -29.921875 C 9.667969 -28.910156 9.207031 -28.542969 8.746094 -27.898438 C 7.917969 -26.882812 7.273438 -26.421875 6.8125 -26.421875 Z M 6.8125 -26.421875 "/></g></g></g><g fill="rgb(0%, 0%, 0%)" fill-opacity="1"><g transform="translate(47.940748, 88.035302)"><g><path d="M 13.902344 -4.050781 C 17.125 -4.050781 18.320312 -5.707031 19.703125 -8.378906 C 22.558594 -14.640625 23.570312 -20.898438 24.398438 -27.621094 L 24.949219 -32.777344 C 25.226562 -34.15625 25.503906 -34.25 26.609375 -34.339844 C 29.832031 -34.800781 33.144531 -35.261719 36.460938 -35.628906 L 40.324219 -36.183594 C 40.695312 -36.273438 40.878906 -36.550781 40.878906 -37.011719 C 40.785156 -37.289062 40.601562 -37.5625 40.140625 -37.65625 C 39.679688 -37.65625 39.3125 -37.65625 39.035156 -37.5625 L 30.75 -36.460938 C 29.1875 -36.183594 27.710938 -36.089844 26.238281 -36 L 26.054688 -36 C 25.59375 -36 25.410156 -36.273438 25.503906 -36.734375 C 26.421875 -43.734375 27.898438 -50.636719 29.921875 -57.449219 C 30.289062 -58.648438 30.75 -59.382812 32.132812 -59.84375 L 45.480469 -64.632812 C 46.863281 -65.09375 48.152344 -65.550781 49.53125 -66.011719 C 50.820312 -66.472656 52.109375 -66.933594 53.492188 -67.394531 C 54.320312 -67.671875 55.242188 -68.039062 56.253906 -68.683594 C 57.636719 -69.511719 57.542969 -71.351562 56.070312 -72.179688 C 54.320312 -73.195312 51.191406 -73.65625 49.257812 -73.65625 C 45.296875 -73.65625 41.523438 -72.367188 37.839844 -70.984375 C 34.800781 -69.789062 31.488281 -66.195312 30.476562 -62.976562 C 29.832031 -60.855469 28.542969 -60.027344 26.699219 -59.292969 C 18.597656 -55.976562 7.457031 -51.191406 0.644531 -45.574219 C 0.277344 -45.296875 -0.183594 -45.207031 0.09375 -44.5625 C 0.277344 -44.285156 0.550781 -44.191406 0.828125 -44.191406 C 1.105469 -44.191406 1.289062 -44.285156 1.472656 -44.375 L 2.855469 -45.296875 C 3.128906 -45.574219 3.40625 -45.757812 3.683594 -46.035156 C 3.957031 -46.308594 4.234375 -46.496094 4.511719 -46.679688 C 11.230469 -51.097656 18.691406 -54.414062 26.148438 -57.449219 C 26.792969 -57.726562 27.34375 -58.003906 27.988281 -58.003906 L 28.171875 -58.003906 C 28.449219 -57.542969 28.542969 -57.175781 28.355469 -56.898438 C 28.171875 -56.53125 27.988281 -56.160156 27.898438 -55.792969 C 26.421875 -50.636719 25.132812 -45.480469 24.398438 -40.234375 C 24.304688 -39.128906 24.214844 -38.117188 23.9375 -37.011719 C 23.660156 -35.539062 23.84375 -35.628906 22.464844 -35.355469 C 21.175781 -35.171875 7.273438 -32.777344 7.273438 -30.199219 C 7.273438 -29.921875 7.457031 -29.644531 7.824219 -29.554688 L 8.46875 -29.554688 C 9.023438 -29.554688 9.484375 -29.738281 9.757812 -30.105469 C 11.230469 -31.761719 20.253906 -33.511719 22.558594 -33.789062 L 22.742188 -33.789062 C 23.292969 -33.789062 23.476562 -33.511719 23.386719 -32.960938 L 23.386719 -32.683594 C 22.558594 -24.859375 21.820312 -16.847656 18.414062 -9.574219 C 17.953125 -8.5625 17.402344 -7.640625 16.664062 -6.628906 C 15.46875 -5.246094 14.546875 -5.0625 12.796875 -5.0625 C 11.230469 -5.15625 10.585938 -5.984375 10.679688 -7.457031 C 10.679688 -8.378906 11.046875 -9.300781 11.691406 -10.128906 C 11.785156 -10.21875 11.96875 -10.402344 12.0625 -10.585938 C 12.152344 -10.773438 12.246094 -10.957031 12.335938 -11.140625 C 12.429688 -11.324219 12.335938 -11.601562 12.0625 -11.875 C 11.96875 -11.96875 11.875 -12.0625 11.785156 -12.0625 C 11.691406 -12.0625 11.507812 -11.96875 11.417969 -11.875 C 10.3125 -10.863281 9.484375 -9.851562 9.207031 -8.285156 C 9.023438 -6.535156 9.667969 -5.339844 11.230469 -4.601562 C 12.246094 -4.234375 12.796875 -4.050781 13.902344 -4.050781 Z M 32.039062 -61.5 C 31.949219 -61.5 31.761719 -61.59375 31.671875 -61.6875 C 31.578125 -61.871094 31.578125 -62.144531 31.761719 -62.421875 C 33.144531 -65.644531 35.171875 -68.039062 38.484375 -69.417969 C 42.074219 -70.800781 45.757812 -71.996094 49.71875 -71.996094 C 51.648438 -71.996094 53.492188 -71.628906 55.425781 -70.984375 C 55.609375 -70.894531 55.703125 -70.707031 55.703125 -70.617188 C 55.703125 -70.433594 55.609375 -70.25 55.515625 -70.15625 C 55.242188 -69.878906 54.871094 -69.695312 54.597656 -69.605469 C 54.226562 -69.511719 53.859375 -69.328125 53.582031 -69.234375 L 40.417969 -64.539062 C 39.035156 -64.078125 37.746094 -63.621094 36.460938 -63.160156 C 35.171875 -62.699219 33.882812 -62.144531 32.5 -61.6875 C 32.222656 -61.59375 32.132812 -61.5 32.039062 -61.5 Z M 32.039062 -61.5 "/></g></g></g></svg>