<svg width="45" height="45" viewBox="0 0 45 45" fill="none" xmlns="http://www.w3.org/2000/svg">
<path fill-rule="evenodd" clip-rule="evenodd" d="M29.7999 17.2769V1.38411C29.3491 1.23197 28.8871 1.09291 28.4242 0.964107C26.5799 0.471307 24.6386 0.199707 22.6319 0.199707C21.7742 0.199707 20.9314 0.252907 20.0998 0.34904C18.066 0.57864 16.1163 1.08637 14.2823 1.82091C14.2823 1.82091 29.3939 16.7225 29.7999 17.2769ZM41.9707 11.2956C42.2106 11.711 42.4365 12.1338 42.6483 12.5566L31.3662 23.7948C31.4791 23.12 31.3662 1.93896 31.3662 1.93896C33.1834 2.70616 34.9185 3.72723 36.5229 4.99563C37.1781 5.5127 37.8137 6.07176 38.4194 6.6747C39.8371 8.08403 41.0131 9.6455 41.9707 11.2956ZM23.9017 13.8339L12.6224 2.59375C12.1912 2.80842 11.7674 3.03335 11.3549 3.27228C9.69356 4.22335 8.12836 5.39842 6.71436 6.80682C6.10302 7.41255 5.54769 8.04815 5.02969 8.69775C3.75569 10.2956 2.73182 12.0269 1.95996 13.8376C1.95996 13.8376 23.2213 13.7256 23.9017 13.8339ZM17.338 15.4322H1.38551C1.23151 15.8783 1.09525 16.3385 0.968313 16.8014C0.470847 18.641 0.20018 20.5739 0.20018 22.5722C0.20018 23.4262 0.25338 24.2671 0.350447 25.0941C0.580047 27.1231 1.08778 29.0654 1.82978 30.8873C1.82978 30.8873 16.7799 15.8298 17.338 15.4322ZM2.53711 32.5316L13.8127 21.2915C13.7045 21.9647 13.8171 42.7634 13.8192 43.1476L13.8192 43.1481L13.8192 43.149L13.8192 43.1499L13.8192 43.1502L13.8192 43.153C11.9983 42.3867 10.267 41.3703 8.66257 40.0991C8.00737 39.5783 7.37084 39.0239 6.76604 38.42C5.34737 37.0098 4.16764 35.4483 3.21471 33.7954C2.97671 33.3791 2.74617 32.9619 2.53711 32.5316ZM34.5789 31.4853C31.8195 33.3321 29.9266 36.3726 29.6388 39.868L21.1894 31.4501C21.576 31.5147 28.5857 31.5054 34.5789 31.4853ZM38.798 29.7781H27.8594C28.4184 29.3759 43.3714 14.3193 43.3714 14.3193C44.1124 16.144 44.6164 18.0881 44.8488 20.1144C44.945 20.9423 45 21.7841 45 22.6391C45 24.6383 44.7275 26.5656 44.2272 28.4071C44.1022 28.8681 43.9631 29.3283 43.8119 29.7781H42.8032C42.1534 29.6608 41.4841 29.5996 40.8006 29.5996C40.117 29.5996 39.4478 29.6608 38.798 29.7781ZM29.6833 42.1676C29.7482 42.7003 29.8504 43.2215 29.9874 43.7284C28.4293 44.2774 26.7937 44.6577 25.0959 44.8499C24.268 44.947 23.4233 45.0002 22.5684 45.0002C20.5617 45.0002 18.6232 44.7314 16.7761 44.2302C16.3141 44.106 15.854 43.9679 15.4013 43.8148V27.9202C15.7332 28.3822 26.0752 38.604 29.6833 42.1676Z" fill="#6B7CFF"/>
</svg>
