<svg width="53" height="48" viewBox="0 0 53 48" fill="none" xmlns="http://www.w3.org/2000/svg">
<g id="Icon">
<path id="Vector" fill-rule="evenodd" clip-rule="evenodd" d="M29.9873 3.48679C29.9873 4.91671 29.1265 6.14558 27.8949 6.68357V9.76318H43.2318C44.005 9.76318 44.6318 10.39 44.6318 11.1632V33.4681C44.6318 34.2413 44.005 34.8681 43.2318 34.8681H33.4745V39.0521H19.5273V34.8681H9.76914C8.99595 34.8681 8.36914 34.2413 8.36914 33.4681V11.1632C8.36914 10.39 8.99594 9.76318 9.76914 9.76318H25.1055V6.68333C23.8741 6.14521 23.0137 4.91649 23.0137 3.48679C23.0137 1.56109 24.5748 0 26.5005 0C28.4262 0 29.9873 1.56109 29.9873 3.48679ZM16.7427 39.0522C15.9695 39.0522 15.3427 39.679 15.3427 40.4522V46.0205C15.3427 46.7937 15.9695 47.4205 16.7427 47.4205H36.2582C37.0314 47.4205 37.6582 46.7937 37.6582 46.0205V40.4522C37.6582 39.679 37.0314 39.0522 36.2582 39.0522H16.7427ZM22.3171 22.3158C22.3171 23.8564 21.0683 25.1052 19.5277 25.1052C17.9872 25.1052 16.7383 23.8564 16.7383 22.3158C16.7383 20.7752 17.9872 19.5264 19.5277 19.5264C21.0683 19.5264 22.3171 20.7752 22.3171 22.3158ZM33.4749 25.1052C35.0154 25.1052 36.2643 23.8564 36.2643 22.3158C36.2643 20.7752 35.0154 19.5264 33.4749 19.5264C31.9343 19.5264 30.6854 20.7752 30.6854 22.3158C30.6854 23.8564 31.9343 25.1052 33.4749 25.1052Z" fill="#6B7CFF"/>
<path id="Vector_2" fill-rule="evenodd" clip-rule="evenodd" d="M47.4177 27.8945C50.4988 27.8945 52.9966 25.3968 52.9966 22.3157C52.9966 19.2346 50.4988 16.7368 47.4177 16.7368V27.8945Z" fill="#6B7CFF"/>
<path id="Vector_3" fill-rule="evenodd" clip-rule="evenodd" d="M5.57935 27.8941C2.49822 27.8941 0.000480175 25.3963 0.000480175 22.3152C0.000480175 19.2341 2.49822 16.7363 5.57935 16.7363V27.8941Z" fill="#6B7CFF"/>
</g>
</svg>
